<svg xmlns="http://www.w3.org/2000/svg" version="1.1" xmlns:xlink="http://www.w3.org/1999/xlink" xmlns:svgjs="http://svgjs.dev/svgjs" width="2000" height="2032" viewBox="0 0 2000 2032"><g transform="matrix(1,0,0,1,-1.2185980318539578,-3.2774170695978455)"><svg viewBox="0 0 244 248" data-background-color="#343434" preserveAspectRatio="xMidYMid meet" height="2032" width="2000" xmlns="http://www.w3.org/2000/svg" xmlns:xlink="http://www.w3.org/1999/xlink"><g id="tight-bounds" transform="matrix(1,0,0,1,0.14866895988618012,0.39999972109265514)"><svg viewBox="0 0 243.70266208022764 247.2" height="247.2" width="243.70266208022764"><g><svg viewBox="0 0 397.4975999999999 403.2020244721497" height="247.2" width="243.70266208022764"><g><rect width="397.4975999999999" height="8.420002925335417" x="0" y="225.51165023188994" fill="#000000" opacity="1" stroke-width="0" stroke="transparent" fill-opacity="1" class="rect-yte-0" data-fill-palette-color="secondary" rx="1%" id="yte-0" data-palette-color="#ffffff"></rect></g><g transform="matrix(1,0,0,1,0.9887999999999693,255.9735456319254)"><svg viewBox="0 0 395.52 147.22847884022423" height="147.22847884022423" width="395.52"><g id="textblocktransform"><svg viewBox="0 0 395.52 147.22847884022423" height="147.22847884022423" width="395.52" id="textblock"><g><svg viewBox="0 0 395.52 93.36778187829363" height="93.36778187829363" width="395.52"><g transform="matrix(1,0,0,1,0,0)"><svg width="395.52" viewBox="0.75 -35 201.19701361098004 47.5" height="93.36778187829363" data-palette-color="#ffffff"><path d="M13.65 0.5Q7.2 0.5 3.98-2.83 0.75-6.15 0.75-12.08 0.75-18 4.38-21.15 8-24.3 13.6-24.3L13.6-24.3Q24.95-24.3 24.5-12.9L24.5-12.9 10.4-12.9 10.4-10.95Q10.4-6.05 11.65-3.55 12.9-1.05 16-1.05L16-1.05Q21.8-1.05 23.6-7.25L23.6-7.25 24.5-7.1Q23.55-3.5 21.08-1.5 18.6 0.5 13.65 0.5L13.65 0.5ZM10.45-16.35L10.45-13.9 15.6-13.9 15.6-16.35Q15.6-20.4 15.13-21.88 14.65-23.35 13.23-23.35 11.8-23.35 11.13-21.78 10.45-20.2 10.45-16.35L10.45-16.35ZM38.3-11.75L38.3-11.75 39.75-11.75 39.75-15.6Q39.75-20.35 39.22-21.98 38.7-23.6 37.2-23.6L37.2-23.6Q36.3-23.6 35.57-23.13 34.85-22.65 34.85-21.83 34.85-21 35.15-20.15L35.15-20.15 36.4-20.15Q36.8-19.1 36.8-17.63 36.8-16.15 35.55-15.08 34.3-14 32.4-14L32.4-14Q28.1-14 28.1-18.15L28.1-18.15Q28.1-24.3 38.55-24.3L38.55-24.3Q44.5-24.3 46.77-22.28 49.05-20.25 49.05-14.85L49.05-14.85 49.05-4.7Q49.05-2.1 50.5-2.1L50.5-2.1Q52.2-2.1 52.5-7.25L52.5-7.25 53.25-7.2Q53.05-2.8 51.6-1.15 50.15 0.5 46.85 0.5L46.85 0.5Q40.85 0.5 39.95-3.2L39.95-3.2Q39.3-1.3 38-0.4 36.7 0.5 34.2 0.5L34.2 0.5Q26.8 0.5 26.8-5.55L26.8-5.55Q26.8-9.1 29.62-10.43 32.45-11.75 38.3-11.75ZM36.3-5.6Q36.3-3 36.57-2.25 36.85-1.5 37.62-1.5 38.4-1.5 39.07-2.78 39.75-4.05 39.75-6.3L39.75-6.3 39.75-10.95 39.4-10.95Q36.3-10.95 36.3-6.4L36.3-6.4 36.3-5.6ZM55.5 0.5L54.9 0.5 54.9-8.45 55.5-8.45Q56.8-4.1 59-2.35 61.2-0.6 64.5-0.6L64.5-0.6Q69.59-0.6 69.59-3.85L69.59-3.85Q69.59-5.25 68.34-5.95L68.34-5.95Q66.4-7.05 63.35-7.65L63.35-7.65Q59.95-8.55 57.65-10.05L57.65-10.05Q54.9-11.85 54.9-15.75 54.9-19.65 57.3-21.98 59.7-24.3 63.7-24.3L63.7-24.3Q66.15-24.3 68.75-23.15L68.75-23.15Q69.7-22.75 70.2-22.75 70.7-22.75 71.05-23.1 71.4-23.45 71.9-24.4L71.9-24.4 72.45-24.4 72.45-16.75 71.84-16.75Q69.3-23.25 63.95-23.25L63.95-23.25Q61.6-23.25 60.45-22.43 59.3-21.6 59.3-20.35L59.3-20.35Q59.3-19.6 59.65-19.18 60-18.75 60.2-18.55 60.4-18.35 60.85-18.13 61.3-17.9 61.6-17.78 61.9-17.65 62.52-17.45 63.15-17.25 63.45-17.2L63.45-17.2Q66.84-16.35 68.34-15.73 69.84-15.1 71.2-14.2L71.2-14.2Q73.95-12.3 73.95-8.08 73.95-3.85 71.45-1.68 68.95 0.5 64.59 0.5L64.59 0.5Q61.5 0.5 58.6-0.95L58.6-0.95Q58-1.35 57.65-1.35L57.65-1.35Q56.55-1.35 55.5 0.5L55.5 0.5ZM76.04-22.9L73.99-22.9 73.99-23.8 88.49-23.8 88.49-22.9 85.79-22.9 91.24-6.3 97.04-22.9 93.69-22.9 93.69-23.8 100.74-23.8 100.74-22.9 98.24-22.9 88.89 4.05Q87.24 8.75 85.19 10.63 83.14 12.5 80.19 12.5 77.24 12.5 75.54 11.15 73.84 9.8 73.84 7.7 73.84 5.6 74.94 4.5 76.04 3.4 77.84 3.4L77.84 3.4Q81.99 3.4 81.99 6.85L81.99 6.85Q81.99 7.6 81.69 8.65L81.69 8.65 79.94 8.65Q79.54 9.8 79.84 10.55 80.14 11.3 81.19 11.3L81.19 11.3Q83.24 11.3 84.84 9.28 86.44 7.25 87.89 3.1L87.89 3.1 88.99 0 84.59 0 76.04-22.9ZM113.44-34.05L121.84-9.05 130.54-34.05 126.64-34.05 126.64-35 134.29-35 134.29-34.05 131.94-34.05 119.89 0.5 115.69 0.5 102.94-34.05 100.64-34.05 100.64-35 116.99-35 116.99-34.05 113.44-34.05ZM147.24-9.85L147.24-9.85 147.24-14.1Q147.24-18.95 146.71-21.18 146.19-23.4 144.29-23.4L144.29-23.4Q143.19-23.4 142.51-22.78 141.84-22.15 141.54-20.7L141.54-20.7Q141.09-18.45 141.09-13.85L141.09-13.85 141.09-9.95Q141.09-4.5 141.41-3.4 141.74-2.3 142.09-1.6L142.09-1.6Q142.64-0.4 144.24-0.4L144.24-0.4Q146.19-0.4 146.79-2.65L146.79-2.65Q147.24-4.25 147.24-9.85ZM144.14 0.5Q137.89 0.5 134.69-2.7 131.49-5.9 131.49-11.88 131.49-17.85 134.91-21.08 138.34-24.3 144.54-24.3 150.74-24.3 153.79-21.33 156.84-18.35 156.84-12.25L156.84-12.25Q156.84 0.5 144.14 0.5L144.14 0.5ZM160.74-7.15L160.74-7.15 160.74-22.9 157.99-22.9 157.99-23.8 160.74-23.8 160.74-30.25 170.04-32.55 170.04-23.8 176.54-23.8 176.54-22.9 170.04-22.9 170.04-6.05Q170.04-3.7 170.51-2.6 170.99-1.5 172.49-1.5 173.99-1.5 175.11-3 176.24-4.5 176.59-7.1L176.59-7.1 177.44-7Q177.04-3.55 175.24-1.53 173.44 0.5 169.29 0.5 165.14 0.5 162.94-1.15 160.74-2.8 160.74-7.15ZM191.08 0.5Q184.63 0.5 181.41-2.83 178.18-6.15 178.18-12.08 178.18-18 181.81-21.15 185.43-24.3 191.03-24.3L191.03-24.3Q202.38-24.3 201.93-12.9L201.93-12.9 187.83-12.9 187.83-10.95Q187.83-6.05 189.08-3.55 190.33-1.05 193.43-1.05L193.43-1.05Q199.23-1.05 201.03-7.25L201.03-7.25 201.93-7.1Q200.98-3.5 198.51-1.5 196.03 0.5 191.08 0.5L191.08 0.5ZM187.88-16.35L187.88-13.9 193.03-13.9 193.03-16.35Q193.03-20.4 192.56-21.88 192.08-23.35 190.66-23.35 189.23-23.35 188.56-21.78 187.88-20.2 187.88-16.35L187.88-16.35Z" opacity="1" transform="matrix(1,0,0,1,0,0)" fill="#000000" class="wordmark-text-0" data-fill-palette-color="primary" id="text-0"></path></svg></g></svg></g><g transform="matrix(1,0,0,1,39.55199999999999,115.40967435299368)"><svg viewBox="0 0 316.416 31.818804487230555" height="31.818804487230555" width="316.416"><g transform="matrix(1,0,0,1,0,0)"><svg width="316.416" viewBox="-0.0024999999999999953 -34.45 470.6925 47.338887535155" height="31.818804487230555" data-palette-color="#ffffff"><path d="M3.05-17.35L3.05-17.35 2.55-17.4 1.95-17.4Q0.55-17.4 0.3-17.75L0.3-17.75Q-0.25-18.7 0.2-19.65L0.2-19.65Q0.5-20.4 1.2-20.53 1.9-20.65 2.4-20.8L2.4-20.8Q2.65-20.8 3.63-20.95 4.6-21.1 4.75-21.25L4.75-21.25 4.75-21.65Q4.75-21.95 5.2-23.15L5.2-23.15Q5.2-23.4 5.4-23.9L5.4-23.9Q5.55-24.4 5.75-25.3L5.75-25.3 6.45-27.7Q6.45-27.9 6.8-28.45L6.8-28.45Q6.7-28.6 6.88-29 7.05-29.4 7.05-29.65L7.05-29.65 7.35-30.45 7.8-31.1Q7.8-31.5 8.1-32.1L8.1-32.1Q8.4-32.4 8.5-32.65L8.5-32.65Q11.05-34.35 11.4-34.4L11.4-34.4 12.8-34.4Q13.95-34.4 14.4-34.45L14.4-34.45Q16.05-34.35 17.1-33.85L17.1-33.85 17.6-33.7Q19.65-32 19.45-30.3L19.45-30.3Q19.45-29.95 18.93-29.45 18.4-28.95 17.75-28.85L17.75-28.85Q16.4-28.85 15.15-29.4 13.9-29.95 13.23-29.95 12.55-29.95 12.1-29.15L12.1-29.15Q11.6-28 11-24.5L11-24.5Q10.35-21.4 10.45-21.3L10.45-21.3 10.9-21.3Q11.4-21.2 11.95-21.2L11.95-21.2 13.7-20.95Q14.6-20.95 16.03-20.43 17.45-19.9 17.23-18.88 17-17.85 15.85-17.75L15.85-17.75Q12.6-17.9 10.6-17.25L10.6-17.25Q10.2-17.1 10.2-14.8L10.2-14.8 10-10.3Q10-9.55 9.9-9.5L9.9-9.5Q9.65-9.3 9.95-8.8L9.95-8.8Q9.9-8.7 9.88-8.03 9.85-7.35 9.9-7.1L9.9-7.1Q9.8-6.9 9.85-5.28 9.9-3.65 9.95-3.2L9.95-3.2Q9.85-3.2 9.95-2.5L9.95-2.5 9.95-1.75Q9.95 0.35 9.9 0.75L9.9 0.75Q9.7 2.6 7.6 2.95L7.6 2.95Q6.55 3.1 5.85 2.73 5.15 2.35 4.9 1.9L4.9 1.9Q4.55 1.25 4.1-0.25L4.1-0.25 4.1-0.8 4-1.65Q4-2 4.1-2.5L4.1-2.5Q4-3 4-3.15L4-3.15 4-4.45Q4.05-5.25 3.95-6.3L3.95-6.3 3.95-7.45Q3.95-7.8 4.05-9.4L4.05-9.4Q4-10.1 4-10.8L4-10.8Q4.15-13.85 4.05-14.8L4.05-14.8Q4.15-15.1 4.15-15.5L4.15-15.5 4.15-16.2Q4.25-16.5 4.25-16.75 4.25-17 4.15-17.35L4.15-17.35Q3.45-17.45 3.05-17.35ZM19.4-12.1L18.95-14.75Q18.95-15.2 18.85-15.8L18.85-15.8 18.85-16.15Q18.9-16.5 18.8-16.9L18.8-16.9Q18.8-17.4 18.9-17.8L18.9-17.8Q18.9-18.8 19.15-19.1L19.15-19.1Q19.15-19.35 19.85-20.25L19.85-20.25Q20.05-20.45 20.6-20.9L20.6-20.9Q21.4-21.15 21.7-21.2L21.7-21.2Q21.9-21.4 23.05-21.05L23.05-21.05Q23.55-21 24.6-20.7L24.6-20.7Q24.95-20.6 25.5-19.9L25.5-19.9Q25.4-19.7 25.17-18.43 24.95-17.15 25-16.35L25-16.35Q25.3-16.6 26.05-17.4 26.8-18.2 26.85-18.25L26.85-18.25Q28.15-18.85 29.4-19.1L29.4-19.1Q31.2-19.25 31.75-18.85L31.75-18.85Q32.2-18.7 32.45-18.4L32.45-18.4Q32.9-18 33.2-17.03 33.5-16.05 33.15-15.8L33.15-15.8Q32.85-15.55 31.15-15.4L31.15-15.4Q31.05-15.4 30.45-15L30.45-15 27.85-12.95Q27.05-12.55 26.75-12.25L26.75-12.25 25.8-10.5Q25.75-10.4 25.7-9.2 25.65-8 25.7-7.48 25.75-6.95 25.7-4.1L25.7-4.1 25.7-1.95Q25.7-0.2 25.65 0.08 25.6 0.35 25.25 1.05L25.25 1.05Q25.1 1.3 24.3 1.3L24.3 1.3Q22.35 2.75 21.8 1.15L21.8 1.15 21.15 0.75Q20.75 0.55 20.65 0.25L20.65 0.25Q20.25-0.3 20.25-0.4L20.25-0.4 20.05-1.1 19.75-1.7Q19.6-1.75 19.5-3.63 19.4-5.5 19.4-5.93 19.4-6.35 19.3-6.85L19.3-6.85Q19.65-7.2 19.62-8.05 19.6-8.9 19.5-9.38 19.4-9.85 19.5-9.98 19.6-10.1 19.45-11.35L19.45-11.35Q19.3-11.55 19.4-12.1L19.4-12.1ZM45.7-16L45.7-16Q45.89-16.75 45.64-17.9L45.64-17.9Q45.3-18.2 44.7-18.2L44.7-18.2Q43.95-18.2 43.34-16.8L43.34-16.8Q42.55-15.6 42.14-14.15L42.14-14.15 42.09-14.15Q41.55-12.05 41.55-11.9L41.55-11.9Q42.34-11.7 42.84-11.73 43.34-11.75 43.99-12.25L43.99-12.25Q45.14-13.35 45.7-16ZM45.55-8.8L45.55-8.8 43.7-8.65Q42.14-8.65 41.24-8.95L41.24-8.95 41.39-8Q41.55-3.85 43.7-2.55L43.7-2.55Q44.3-2.3 44.7-2.3 45.09-2.3 45.74-2.7L45.74-2.7Q45.95-2.9 46.09-3.25L46.09-3.25Q46.14-3.7 46.59-3.65L46.59-3.65Q48.64-6.25 49.7-5.7L49.7-5.7Q50.75-5 50.75-4.6L50.75-4.6Q50.75-4.4 50.5-4.15L50.5-4.15 50.5-3.85Q50.5-3.35 49.87-2.05 49.24-0.75 48.55 0.15L48.55 0.15Q48.2 0.9 47.64 1.2L47.64 1.2Q46.05 2.2 44.24 2L44.24 2Q43.84 1.95 43.7 1.8L43.7 1.8Q43.3 1.7 43.09 1.75L43.09 1.75 42.7 1.7Q42.24 1.7 41.95 1.5L41.95 1.5Q41.45 1.2 41.24 1.2L41.24 1.2Q39.95 0.7 39.67 0.45 39.39 0.2 39.2 0.1 38.99 0 38.24-0.95L38.24-0.95Q37.59-1.5 37.49-1.65L37.49-1.65Q37.2-2.1 36.97-2.3 36.74-2.5 36.7-3.2L36.7-3.2Q36.49-3.45 36.49-3.85L36.49-3.85 36.3-4.25Q36.3-4.6 35.99-4.8L35.99-4.8Q35.7-5.1 35.7-5.55L35.7-5.55 35.7-5.95Q35.49-6.05 35.59-6.55L35.59-6.55 35.59-7.85 35.55-8.3 35.55-8.65Q35.49-8.85 35.64-9.5L35.64-9.5 35.59-9.95Q35.64-10 35.74-10.75L35.74-10.75Q35.95-11.8 36.2-12.05L36.2-12.05 36.2-12.5Q36.24-12.65 36.24-12.9 36.24-13.15 36.37-13.45 36.49-13.75 37.14-15.7L37.14-15.7 37.95-17.45Q38.3-18.2 39.05-19.1L39.05-19.1Q39.09-19.35 39.45-20L39.45-20 40.09-20.6Q40.39-21.05 40.99-21.25L40.99-21.25Q41.7-21.6 42.05-21.6L42.05-21.6 43.45-21.8Q43.7-21.75 43.8-21.75L43.8-21.75 44.45-21.75Q45.55-21.65 46.24-21.3L46.24-21.3Q47.74-20.85 48.45-20.15L48.45-20.15Q50-18.4 50-16.8 50-15.2 49.5-14.05L49.5-14.05Q48.24-11.2 47.7-10.45L47.7-10.45Q46.8-8.8 45.55-8.8ZM64.69-16L64.69-16Q64.89-16.75 64.64-17.9L64.64-17.9Q64.29-18.2 63.69-18.2L63.69-18.2Q62.94-18.2 62.34-16.8L62.34-16.8Q61.54-15.6 61.14-14.15L61.14-14.15 61.09-14.15Q60.54-12.05 60.54-11.9L60.54-11.9Q61.34-11.7 61.84-11.73 62.34-11.75 62.99-12.25L62.99-12.25Q64.14-13.35 64.69-16ZM64.54-8.8L64.54-8.8 62.69-8.65Q61.14-8.65 60.24-8.95L60.24-8.95 60.39-8Q60.54-3.85 62.69-2.55L62.69-2.55Q63.29-2.3 63.69-2.3 64.09-2.3 64.74-2.7L64.74-2.7Q64.94-2.9 65.09-3.25L65.09-3.25Q65.14-3.7 65.59-3.65L65.59-3.65Q67.64-6.25 68.69-5.7L68.69-5.7Q69.74-5 69.74-4.6L69.74-4.6Q69.74-4.4 69.49-4.15L69.49-4.15 69.49-3.85Q69.49-3.35 68.87-2.05 68.24-0.75 67.54 0.15L67.54 0.15Q67.19 0.9 66.64 1.2L66.64 1.2Q65.04 2.2 63.24 2L63.24 2Q62.84 1.95 62.69 1.8L62.69 1.8Q62.29 1.7 62.09 1.75L62.09 1.75 61.69 1.7Q61.24 1.7 60.94 1.5L60.94 1.5Q60.44 1.2 60.24 1.2L60.24 1.2Q58.94 0.7 58.67 0.45 58.39 0.2 58.19 0.1 57.99 0 57.24-0.95L57.24-0.95Q56.59-1.5 56.49-1.65L56.49-1.65Q56.19-2.1 55.97-2.3 55.74-2.5 55.69-3.2L55.69-3.2Q55.49-3.45 55.49-3.85L55.49-3.85 55.29-4.25Q55.29-4.6 54.99-4.8L54.99-4.8Q54.69-5.1 54.69-5.55L54.69-5.55 54.69-5.95Q54.49-6.05 54.59-6.55L54.59-6.55 54.59-7.85 54.54-8.3 54.54-8.65Q54.49-8.85 54.64-9.5L54.64-9.5 54.59-9.95Q54.64-10 54.74-10.75L54.74-10.75Q54.94-11.8 55.19-12.05L55.19-12.05 55.19-12.5Q55.24-12.65 55.24-12.9 55.24-13.15 55.37-13.45 55.49-13.75 56.14-15.7L56.14-15.7 56.94-17.45Q57.29-18.2 58.04-19.1L58.04-19.1Q58.09-19.35 58.44-20L58.44-20 59.09-20.6Q59.39-21.05 59.99-21.25L59.99-21.25Q60.69-21.6 61.04-21.6L61.04-21.6 62.44-21.8Q62.69-21.75 62.79-21.75L62.79-21.75 63.44-21.75Q64.54-21.65 65.24-21.3L65.24-21.3Q66.74-20.85 67.44-20.15L67.44-20.15Q68.99-18.4 68.99-16.8 68.99-15.2 68.49-14.05L68.49-14.05Q67.24-11.2 66.69-10.45L66.69-10.45Q65.79-8.8 64.54-8.8ZM93.34-14.75L93.34-14.75Q92.99-16.75 91.39-16.6L91.39-16.6Q90.49-16.55 89.84-15.4L89.84-15.4Q88.94-13.65 89.06-10.88 89.19-8.1 89.46-6.88 89.74-5.65 90.44-4.75L90.44-4.75Q90.84-4.05 91.64-4.1L91.64-4.1Q93.04-4.1 93.69-6.45L93.69-6.45 94.09-7.65Q94.34-7.9 94.19-8.15L94.19-8.15Q94.69-9.4 94.74-11.1L94.74-11.1Q94.24-11.45 94.14-11.75L94.14-11.75Q93.84-12.6 93.84-12.9L93.84-12.9Q93.49-13.15 93.44-13.85 93.39-14.55 93.34-14.75ZM84.19-10.05L84.19-10.05 84.39-12.6Q84.74-16.05 86.49-18.5L86.49-18.5Q88.19-20.55 91.29-20.6L91.29-20.6 91.59-20.6Q94.49-20.6 95.79-19.35L95.79-19.35Q97.19-18.25 97.86-16.95 98.54-15.65 98.74-15.05 98.94-14.45 98.99-13.3L98.99-13.3Q99.09-11.15 98.14-10.85L98.14-10.85Q98.84-6.1 97.29-3.3L97.29-3.3Q96.79-2.15 95.84-0.8L95.84-0.8Q95.14 0.1 93.34 0.2L93.34 0.2Q91.54 0.2 90.21 0 88.89-0.2 87.29-1.28 85.69-2.35 85.04-4.8L85.04-4.8Q84.34-7.15 84.19-10.05ZM115.09-1.85L115.09-1.85 114.79-2.7 114.24-6.05Q113.99-7 113.99-7.75L113.99-7.75 114.19-9.95Q114.19-10.5 114.24-10.55L114.24-10.55Q113.64-10.55 112.44-9.1L112.44-9.1Q112.34-8.95 112.14-8.6L112.14-8.6Q110.04-5.25 109.64-0.55L109.64-0.55Q109.24 0.3 108.59 0.3L108.59 0.3Q107.24 0 107.09 0L107.09 0 106.74 0.05 106.09 0.05Q104.94-0.05 104.59-0.85L104.59-0.85Q104.39-1.1 104.39-2.15L104.39-2.15 104.39-2.85 104.24-5.6 104.24-9.7Q104.24-10.4 104.14-11.45L104.14-11.45Q104.04-12.6 104.09-15.08 104.14-17.55 104.04-17.73 103.94-17.9 103.94-18.2 103.94-18.5 104.09-18.8 104.24-19.1 105.44-19.45L105.44-19.45Q106.09-19.85 106.54-19.85L106.54-19.85Q107.24-19.7 108.34-19.25L108.34-19.25Q109.09-19.1 109.09-17.8L109.09-17.8Q109.19-15.65 109.11-14.7 109.04-13.75 109.14-10.85L109.14-10.85Q112.84-17.95 115.74-19.4L115.74-19.4Q115.99-19.65 116.49-19.65 116.99-19.65 117.64-19.15 118.29-18.65 118.54-18.5 118.79-18.35 119.11-18 119.44-17.65 119.64-17.55L119.64-17.55Q120.24-16.55 119.89-12.85L119.89-12.85Q119.84-12.3 119.79-11.88 119.74-11.45 119.74-10.05 119.74-8.65 119.79-8.1L119.79-8.1Q119.94-6.35 119.94-6.05L119.94-6.05 120.19-4.15Q120.69-3 120.71-2.38 120.74-1.75 121.59-0.4L121.59-0.4Q121.94 0.35 121.29 0.8L121.29 0.8Q120.29 1.3 120.21 1.23 120.14 1.15 119.64 1.33 119.14 1.5 117.84 1.4L117.84 1.4Q117.19 1.25 116.54 0.6L116.54 0.6 115.79-0.15Q115.39-0.75 115.24-1.45L115.24-1.45Q114.99-1.7 115.09-1.85ZM127.18-26.75L127.18-26.75 127.53-29.7 127.58-31.25Q127.58-31.9 127.83-32.25L127.83-32.25 128.33-32.95Q129.68-34 130.08-34.15 130.48-34.3 131.26-34.13 132.03-33.95 132.18-33.8L132.18-33.8 132.73-33.35Q133.18-33.1 133.18-32.55L133.18-32.55Q133.43-32.25 133.33-32.1L133.33-32.1Q133.03-31.75 132.33-26.2L132.33-26.2 131.93-19.4 131.68-18.05Q131.68-17.4 131.73-17.3L131.73-17.3 131.73-16.4Q131.63-15.4 131.53-15.15L131.53-15.15Q131.53-14.9 131.43-14.6L131.43-14.6Q131.53-14.5 131.53-13.83 131.53-13.15 131.38-13L131.38-13Q131.28-12.2 131.28-11.48 131.28-10.75 131.41-9.98 131.53-9.2 131.48-8.45L131.48-8.45 131.68-6.55 131.68-5.8Q131.78-4.9 131.78-4.35L131.78-4.35 132.03-1.75 132.23-0.4Q132.38 0.45 132.11 1.25 131.83 2.05 131.28 2.25L131.28 2.25Q129.73 2.9 127.88 1.4L127.88 1.4 127.48 1.4Q127.13 1 126.93 0.3L126.93 0.3Q126.53 0.1 126.58-0.4 126.63-0.9 126.38-1.3 126.13-1.7 126.13-2L126.13-2Q126.13-2.65 126.03-3.15L126.03-3.15 126.08-3.55Q125.93-3.7 125.93-4L125.93-4 125.83-4.9 125.83-5.3Q125.83-5.7 125.81-5.85 125.78-6 125.93-6.35L125.93-6.35Q125.78-6.55 125.88-7.8L125.88-7.8Q126.18-11.65 126.18-13.1L126.18-13.1 126.23-14.3 126.23-15.75Q126.28-16.95 126.31-18.8 126.33-20.65 126.48-20.8L126.48-20.8 126.43-21.25Q126.43-22.45 126.81-24.53 127.18-26.6 127.18-26.75ZM140.13-31.35L140.28-31.35Q143.63-31.35 144.98-30L144.98-30Q144.98-29.15 143.83-26.55L143.83-26.55Q143.63-25.7 143.18-25.2L143.18-25.2 142.53-24.55Q142.28-24.4 142.03-24.4L142.03-24.4Q140.23-23.95 139.23-25.1L139.23-25.1Q139.03-25.4 138.76-25.55 138.48-25.7 138.33-26.45L138.33-26.45Q137.88-27.1 137.88-27.45L137.88-27.45Q137.78-30.55 140.13-31.35L140.13-31.35ZM139.58-19.55L139.88-19.55Q140.38-19.8 142.23-19.05L142.23-19.05Q142.43-18.85 142.83-18.65L142.83-18.65 143.63-18Q143.83-17.8 143.83-17.35L143.83-17.35 143.83-12.95Q143.83-11.95 143.73-11.15L143.73-11.15 143.73-10.85Q143.58-8.8 143.98-1.6L143.98-1.6Q144.13-0.2 143.33 0.1L143.33 0.1Q142.48 0.1 142.23-0.15L142.23-0.15Q142.03-0.25 141.88-0.25L141.88-0.25 141.53-0.25 141.23-0.15Q141.08-0.15 140.68-0.38 140.28-0.6 140.16-0.85 140.03-1.1 139.73-1.15L139.73-1.15Q139.18-1.35 139.13-1.9L139.13-1.9Q138.43-3.25 138.41-3.5 138.38-3.75 138.23-4.05L138.23-4.05 137.98-8.4Q137.98-9.15 138.08-9.55L138.08-9.55 138.08-10.75Q138.13-11.3 138.18-12.78 138.23-14.25 138.33-15.15L138.33-15.15Q138.23-16.45 138.23-16.9 138.23-17.35 138.28-17.55L138.28-17.55Q137.73-18.1 138.33-19.05L138.33-19.05Q138.98-19.55 139.58-19.55L139.58-19.55ZM160.63-1.85L160.63-1.85 160.33-2.7 159.78-6.05Q159.53-7 159.53-7.75L159.53-7.75 159.73-9.95Q159.73-10.5 159.78-10.55L159.78-10.55Q159.18-10.55 157.98-9.1L157.98-9.1Q157.88-8.95 157.68-8.6L157.68-8.6Q155.58-5.25 155.18-0.55L155.18-0.55Q154.78 0.3 154.13 0.3L154.13 0.3Q152.78 0 152.63 0L152.63 0 152.28 0.05 151.63 0.05Q150.48-0.05 150.13-0.85L150.13-0.85Q149.93-1.1 149.93-2.15L149.93-2.15 149.93-2.85 149.78-5.6 149.78-9.7Q149.78-10.4 149.68-11.45L149.68-11.45Q149.58-12.6 149.63-15.08 149.68-17.55 149.58-17.73 149.48-17.9 149.48-18.2 149.48-18.5 149.63-18.8 149.78-19.1 150.98-19.45L150.98-19.45Q151.63-19.85 152.08-19.85L152.08-19.85Q152.78-19.7 153.88-19.25L153.88-19.25Q154.63-19.1 154.63-17.8L154.63-17.8Q154.73-15.65 154.65-14.7 154.58-13.75 154.68-10.85L154.68-10.85Q158.38-17.95 161.28-19.4L161.28-19.4Q161.53-19.65 162.03-19.65 162.53-19.65 163.18-19.15 163.83-18.65 164.08-18.5 164.33-18.35 164.65-18 164.98-17.65 165.18-17.55L165.18-17.55Q165.78-16.55 165.43-12.85L165.43-12.85Q165.38-12.3 165.33-11.88 165.28-11.45 165.28-10.05 165.28-8.65 165.33-8.1L165.33-8.1Q165.48-6.35 165.48-6.05L165.48-6.05 165.73-4.15Q166.23-3 166.25-2.38 166.28-1.75 167.13-0.4L167.13-0.4Q167.48 0.35 166.83 0.8L166.83 0.8Q165.83 1.3 165.75 1.23 165.68 1.15 165.18 1.33 164.68 1.5 163.38 1.4L163.38 1.4Q162.73 1.25 162.08 0.6L162.08 0.6 161.33-0.15Q160.93-0.75 160.78-1.45L160.78-1.45Q160.53-1.7 160.63-1.85ZM181.18-16L181.18-16Q181.38-16.75 181.13-17.9L181.13-17.9Q180.78-18.2 180.18-18.2L180.18-18.2Q179.43-18.2 178.83-16.8L178.83-16.8Q178.03-15.6 177.63-14.15L177.63-14.15 177.58-14.15Q177.03-12.05 177.03-11.9L177.03-11.9Q177.83-11.7 178.33-11.73 178.83-11.75 179.48-12.25L179.48-12.25Q180.63-13.35 181.18-16ZM181.03-8.8L181.03-8.8 179.18-8.65Q177.63-8.65 176.73-8.95L176.73-8.95 176.88-8Q177.03-3.85 179.18-2.55L179.18-2.55Q179.78-2.3 180.18-2.3 180.58-2.3 181.23-2.7L181.23-2.7Q181.43-2.9 181.58-3.25L181.58-3.25Q181.63-3.7 182.08-3.65L182.08-3.65Q184.13-6.25 185.18-5.7L185.18-5.7Q186.23-5 186.23-4.6L186.23-4.6Q186.23-4.4 185.98-4.15L185.98-4.15 185.98-3.85Q185.98-3.35 185.35-2.05 184.73-0.75 184.03 0.15L184.03 0.15Q183.68 0.9 183.13 1.2L183.13 1.2Q181.53 2.2 179.73 2L179.73 2Q179.33 1.95 179.18 1.8L179.18 1.8Q178.78 1.7 178.58 1.75L178.58 1.75 178.18 1.7Q177.73 1.7 177.43 1.5L177.43 1.5Q176.93 1.2 176.73 1.2L176.73 1.2Q175.43 0.7 175.15 0.45 174.88 0.2 174.68 0.1 174.48 0 173.73-0.95L173.73-0.95Q173.08-1.5 172.98-1.65L172.98-1.65Q172.68-2.1 172.45-2.3 172.23-2.5 172.18-3.2L172.18-3.2Q171.98-3.45 171.98-3.85L171.98-3.85 171.78-4.25Q171.78-4.6 171.48-4.8L171.48-4.8Q171.18-5.1 171.18-5.55L171.18-5.55 171.18-5.95Q170.98-6.05 171.08-6.55L171.08-6.55 171.08-7.85 171.03-8.3 171.03-8.65Q170.98-8.85 171.13-9.5L171.13-9.5 171.08-9.95Q171.13-10 171.23-10.75L171.23-10.75Q171.43-11.8 171.68-12.05L171.68-12.05 171.68-12.5Q171.73-12.65 171.73-12.9 171.73-13.15 171.85-13.45 171.98-13.75 172.63-15.7L172.63-15.7 173.43-17.45Q173.78-18.2 174.53-19.1L174.53-19.1Q174.58-19.35 174.93-20L174.93-20 175.58-20.6Q175.88-21.05 176.48-21.25L176.48-21.25Q177.18-21.6 177.53-21.6L177.53-21.6 178.93-21.8Q179.18-21.75 179.28-21.75L179.28-21.75 179.93-21.75Q181.03-21.65 181.73-21.3L181.73-21.3Q183.23-20.85 183.93-20.15L183.93-20.15Q185.48-18.4 185.48-16.8 185.48-15.2 184.98-14.05L184.98-14.05Q183.73-11.2 183.18-10.45L183.18-10.45Q182.28-8.8 181.03-8.8ZM207.52-5.4L207.52-5.4 208.17-9.15Q208.17-9.45 208.25-9.63 208.32-9.8 208.32-10.1L208.32-10.1Q208.37-10.5 208.57-11.4L208.57-11.4Q208.57-11.8 208.77-12.05L208.77-12.05Q208.87-12.85 210.02-15.2L210.02-15.2Q210.22-15.9 210.67-16.4L210.67-16.4Q210.67-16.7 210.97-17.1L210.97-17.1 211.57-18.15Q211.57-18.25 211.92-18.9L211.92-18.9Q212.22-19.05 212.32-19.43 212.42-19.8 212.92-20.5L212.92-20.5Q213.07-20.95 214.07-21.35L214.07-21.35 214.87-21.35 215.97-21 216.72-20.5Q216.97-20.25 217.07-19.8L217.07-19.8Q217.17-19.9 217.17-19.8L217.17-19.8Q217.12-19.35 216.57-17.55L216.57-17.55Q216.07-15.9 215.87-15.23 215.67-14.55 215.42-13.85L215.42-13.85Q215.42-13.8 215.02-12.43 214.62-11.05 214.32-10.55L214.32-10.55 213.37-7.05Q212.82-5.75 212.67-4.75L212.67-4.75Q211.57 0.15 211.57 0.35 211.57 0.55 211.17 1.6L211.17 1.6Q211.07 2.4 209.42 2.4L209.42 2.4Q209.17 2.15 208.77 1.95L208.77 1.95Q208.62 2.15 207.42 2L207.42 2Q205.27 2.25 203.77 1.4L203.77 1.4Q203.42 0.8 203.17-0.5L203.17-0.5Q202.52-1.6 202.47-2.25L202.47-2.25 201.97-3.15Q201.97-3.8 201.75-4.35 201.52-4.9 201.47-5.45L201.47-5.45Q201.32-5.8 201.32-6.25L201.32-6.25Q201.22-6.65 201.22-7.1L201.22-7.1Q201.02-8.05 201.07-9.08 201.12-10.1 200.97-11.55L200.97-11.55Q200.97-12.4 200.92-12.6L200.92-12.6 200.97-13.9Q200.97-14.85 201.02-15.05L201.02-15.05Q200.82-15.85 200.82-16.45L200.82-16.45 200.77-17.4Q200.77-18 200.67-18.55 200.57-19.1 200.77-19.65L200.77-19.65Q201.12-20.05 201.52-20.3L201.52-20.3Q202.12-20.8 203.32-20.35L203.32-20.35 204.57-19.8 205.02-19.45Q205.12-19.35 204.97-18.95L204.97-18.95 205.22-16.55Q205.22-15.4 205.52-13.63 205.82-11.85 205.92-10.68 206.02-9.5 206.3-7.43 206.57-5.35 206.62-4.85L206.62-4.85Q206.62-3.9 206.82-3.8L206.82-3.8Q207.27-4.55 207.52-5.4ZM229.17-14.75L229.17-14.75Q228.82-16.75 227.22-16.6L227.22-16.6Q226.32-16.55 225.67-15.4L225.67-15.4Q224.77-13.65 224.89-10.88 225.02-8.1 225.29-6.88 225.57-5.65 226.27-4.75L226.27-4.75Q226.67-4.05 227.47-4.1L227.47-4.1Q228.87-4.1 229.52-6.45L229.52-6.45 229.92-7.65Q230.17-7.9 230.02-8.15L230.02-8.15Q230.52-9.4 230.57-11.1L230.57-11.1Q230.07-11.45 229.97-11.75L229.97-11.75Q229.67-12.6 229.67-12.9L229.67-12.9Q229.32-13.15 229.27-13.85 229.22-14.55 229.17-14.75ZM220.02-10.05L220.02-10.05 220.22-12.6Q220.57-16.05 222.32-18.5L222.32-18.5Q224.02-20.55 227.12-20.6L227.12-20.6 227.42-20.6Q230.32-20.6 231.62-19.35L231.62-19.35Q233.02-18.25 233.69-16.95 234.37-15.65 234.57-15.05 234.77-14.45 234.82-13.3L234.82-13.3Q234.92-11.15 233.97-10.85L233.97-10.85Q234.67-6.1 233.12-3.3L233.12-3.3Q232.62-2.15 231.67-0.8L231.67-0.8Q230.97 0.1 229.17 0.2L229.17 0.2Q227.37 0.2 226.04 0 224.72-0.2 223.12-1.28 221.52-2.35 220.87-4.8L220.87-4.8Q220.17-7.15 220.02-10.05ZM242.62-17.65L242.62-17.65 242.67-18.1Q241.62-18.2 241.19-18.28 240.77-18.35 239.82-18.45 238.87-18.55 238.32-18.75L238.32-18.75Q237.27-19.1 237.12-20.58 236.97-22.05 238.07-22.4L238.07-22.4Q239.07-22.65 239.47-22.65 239.87-22.65 240.97-22.75L240.97-22.75Q241.52-23.05 242.47-23.1L242.47-23.1 243.22-23.3Q243.22-23.25 243.62-23.4L243.62-23.4 243.87-24.45Q243.87-25.25 244.32-26.05L244.32-26.05Q244.32-26.4 244.97-28L244.97-28Q244.97-28.2 245.87-30.9L245.87-30.9Q246.07-31.15 247.37-32.05L247.37-32.05Q248.17-32.45 249.62-31.5L249.62-31.5Q250.42-31.15 250.72-30.55L250.72-30.55Q250.42-30.25 250.42-29.15L250.42-29.15Q250.37-28.8 249.72-25.45L249.72-25.45 249.72-24.05Q250.12-24 251.04-23.8 251.97-23.6 253.27-23.35L253.27-23.35Q255.77-22.85 256.42-21.35L256.42-21.35Q256.67-20.25 256.32-19.8 255.97-19.35 254.62-19.15L254.62-19.15Q253.52-19.1 251.74-19.1 249.97-19.1 249.12-18.85L249.12-18.85Q249.02-17.95 249.02-17.45L249.02-17.45 248.97-16.7Q248.97-16.35 248.52-13L248.52-13Q248.22-12.55 248.02-8.35L248.02-8.35 248.02-4.7Q248.02-3.8 248.17-3L248.17-3Q248.22-1.9 248.42-1.45L248.42-1.45Q248.42-1 248.67 0.45L248.67 0.45Q248.07 1.9 246.69 1.9 245.32 1.9 244.27 0.9L244.27 0.9 243.72 0.1Q243.57-0.3 243.49-0.45 243.42-0.6 243.37-0.8L243.37-0.8Q243.02-1.8 242.82-2.05L242.82-2.05Q242.52-2.45 242.52-2.65 242.52-2.85 242.52-3.15L242.52-3.15Q242.42-4 242.27-4.6L242.27-4.6Q242.02-4.85 242.02-6.3L242.02-6.3Q242.12-8.95 242.02-9.35L242.02-9.35Q242.17-9.5 242.07-11.25L242.07-11.25 242.22-12.35Q242.22-12.55 242.42-13.85L242.42-13.85Q242.32-14.05 242.37-14.93 242.42-15.8 242.52-16.15L242.52-16.15Q242.62-16.75 242.62-17.65ZM259.21-31.35L259.36-31.35Q262.71-31.35 264.06-30L264.06-30Q264.06-29.15 262.91-26.55L262.91-26.55Q262.71-25.7 262.26-25.2L262.26-25.2 261.61-24.55Q261.36-24.4 261.11-24.4L261.11-24.4Q259.31-23.95 258.31-25.1L258.31-25.1Q258.11-25.4 257.84-25.55 257.56-25.7 257.41-26.45L257.41-26.45Q256.96-27.1 256.96-27.45L256.96-27.45Q256.86-30.55 259.21-31.35L259.21-31.35ZM258.66-19.55L258.96-19.55Q259.46-19.8 261.31-19.05L261.31-19.05Q261.51-18.85 261.91-18.65L261.91-18.65 262.71-18Q262.91-17.8 262.91-17.35L262.91-17.35 262.91-12.95Q262.91-11.95 262.81-11.15L262.81-11.15 262.81-10.85Q262.66-8.8 263.06-1.6L263.06-1.6Q263.21-0.2 262.41 0.1L262.41 0.1Q261.56 0.1 261.31-0.15L261.31-0.15Q261.11-0.25 260.96-0.25L260.96-0.25 260.61-0.25 260.31-0.15Q260.16-0.15 259.76-0.38 259.36-0.6 259.24-0.85 259.11-1.1 258.81-1.15L258.81-1.15Q258.26-1.35 258.21-1.9L258.21-1.9Q257.51-3.25 257.49-3.5 257.46-3.75 257.31-4.05L257.31-4.05 257.06-8.4Q257.06-9.15 257.16-9.55L257.16-9.55 257.16-10.75Q257.21-11.3 257.26-12.78 257.31-14.25 257.41-15.15L257.41-15.15Q257.31-16.45 257.31-16.9 257.31-17.35 257.36-17.55L257.36-17.55Q256.81-18.1 257.41-19.05L257.41-19.05Q258.06-19.55 258.66-19.55L258.66-19.55ZM279.71-1.85L279.71-1.85 279.41-2.7 278.86-6.05Q278.61-7 278.61-7.75L278.61-7.75 278.81-9.95Q278.81-10.5 278.86-10.55L278.86-10.55Q278.26-10.55 277.06-9.1L277.06-9.1Q276.96-8.95 276.76-8.6L276.76-8.6Q274.66-5.25 274.26-0.55L274.26-0.55Q273.86 0.3 273.21 0.3L273.21 0.3Q271.86 0 271.71 0L271.71 0 271.36 0.05 270.71 0.05Q269.56-0.05 269.21-0.85L269.21-0.85Q269.01-1.1 269.01-2.15L269.01-2.15 269.01-2.85 268.86-5.6 268.86-9.7Q268.86-10.4 268.76-11.45L268.76-11.45Q268.66-12.6 268.71-15.08 268.76-17.55 268.66-17.73 268.56-17.9 268.56-18.2 268.56-18.5 268.71-18.8 268.86-19.1 270.06-19.45L270.06-19.45Q270.71-19.85 271.16-19.85L271.16-19.85Q271.86-19.7 272.96-19.25L272.96-19.25Q273.71-19.1 273.71-17.8L273.71-17.8Q273.81-15.65 273.74-14.7 273.66-13.75 273.76-10.85L273.76-10.85Q277.46-17.95 280.36-19.4L280.36-19.4Q280.61-19.65 281.11-19.65 281.61-19.65 282.26-19.15 282.91-18.65 283.16-18.5 283.41-18.35 283.74-18 284.06-17.65 284.26-17.55L284.26-17.55Q284.86-16.55 284.51-12.85L284.51-12.85Q284.46-12.3 284.41-11.88 284.36-11.45 284.36-10.05 284.36-8.65 284.41-8.1L284.41-8.1Q284.56-6.35 284.56-6.05L284.56-6.05 284.81-4.15Q285.31-3 285.34-2.38 285.36-1.75 286.21-0.4L286.21-0.4Q286.56 0.35 285.91 0.8L285.91 0.8Q284.91 1.3 284.84 1.23 284.76 1.15 284.26 1.33 283.76 1.5 282.46 1.4L282.46 1.4Q281.81 1.25 281.16 0.6L281.16 0.6 280.41-0.15Q280.01-0.75 279.86-1.45L279.86-1.45Q279.61-1.7 279.71-1.85ZM295.96-10.7L295.96-9.75 296.06-7.8 296.41-6.85 296.91-5.85Q297.06-4.8 297.91-4.6L297.91-4.6Q298.51-4.5 299.06-5.25L299.06-5.25Q299.36-5.5 299.51-5.6L299.51-5.6Q299.81-5.85 299.81-6.73 299.81-7.6 299.96-8.15L299.96-8.15Q299.91-8.4 300.03-9.93 300.16-11.45 300.28-12.28 300.41-13.1 300.36-13.4L300.36-13.4Q300.01-13.85 299.71-15.25L299.71-15.25Q298.71-16.25 298.36-16.35L298.36-16.35Q297.26-16.75 297.01-16.45L297.01-16.45Q296.66-16.1 296.26-13.15L296.26-13.15Q295.96-12.65 295.98-11.88 296.01-11.1 295.96-10.7L295.96-10.7ZM305.26-11.1L305.26-11.1Q305.46-8.6 305.46-7.2L305.46-7.2 305.51-6.55 305.41-3.5Q305.41-2.8 305.36-2.2L305.36-2.2 305.36-1.4 305.16-0.1 305.16 0.4Q305.16 2.25 303.46 5.65L303.46 5.65Q302.86 6.9 301.61 8.2L301.61 8.2Q299.51 10.45 296.46 10.55L296.46 10.55Q293.91 10.55 292.71 9.5L292.71 9.5 292.21 9.25Q291.61 8.95 290.86 7.35L290.86 7.35Q290.86 7.2 290.61 6.7L290.61 6.7Q290.61 6 290.91 5.6L290.91 5.6Q291.11 5.2 292.26 4.9L292.26 4.9Q292.76 4.8 294.11 5.9L294.11 5.9Q295.11 7 296.46 7.05L296.46 7.05Q297.86 7.25 298.61 5.75 299.36 4.25 299.76 1.75L299.76 1.75Q299.96 0.8 299.96-0.4 299.96-1.6 299.86-2L299.86-2Q298.51-1.3 297.46-1.4L297.46-1.4 297.01-1.4Q296.61-1.3 295.81-1.43 295.01-1.55 294.31-2.05L294.31-2.05 293.36-2.7Q293.41-2.65 293.31-2.65L293.31-2.65 293.06-2.8 292.36-3.35Q291.91-3.6 291.91-4.3L291.91-4.3Q291.56-4.5 291.41-4.8L291.41-4.8Q291.01-4.95 291.01-5.5L291.01-5.5 290.76-6.5Q290.76-6.75 290.51-7.75L290.51-7.75Q290.26-8.15 290.38-8.55 290.51-8.95 290.51-9.2L290.51-9.2 290.66-10.9 290.66-11.25Q290.51-11.4 290.66-12.2L290.66-12.2Q290.81-12.5 290.81-12.65L290.81-12.65Q291.11-14.25 291.26-14.68 291.41-15.1 291.48-15.65 291.56-16.2 291.86-16.65L291.86-16.65 292.36-17.8Q292.66-18.35 293.96-19.35L293.96-19.35Q294.46-19.85 295.21-20L295.21-20 296.61-19.9 298.06-19.55Q298.11-19.55 299.91-18.8L299.91-18.8Q299.91-19.75 300.86-20.4L300.86-20.4Q301.26-20.8 302.61-20.45L302.61-20.45 303.06-20.45Q303.61-20.5 304.26-20L304.26-20Q304.56-19.65 304.91-18.4L304.91-18.4Q305.26-13.75 305.26-11.1ZM333.05-14.1L333.05-14.7Q333.3-16.65 333.2-16.8L333.2-16.8Q332.95-16.7 332.6-16.25L332.6-16.25 330.95-14.4Q328.35-11.15 328.35-10.55L328.35-10.55Q328.35-10.45 328-9.75L328-9.75 328.05-8.95 327.95-6.8 327.95-6.25Q327.95-4.1 328.1-3.15L328.1-3.15Q328.15-3.3 328.95-3.8L328.95-3.8 329.8-4.95Q331.1-6.55 331.45-7.25L331.45-7.25Q332.55-10.6 332.55-11.05L332.55-11.05Q332.55-11.75 332.95-13.05L332.95-13.05Q332.95-13.5 333.05-14.1L333.05-14.1ZM322.35-15.5L322.35-15.5 322.55-17.8Q322.7-18.2 322.6-18.85L322.6-18.85 322.95-20.9Q322.95-21.35 322.9-21.88 322.85-22.4 322.95-22.6L322.95-22.6Q323.15-23 324-23.3L324-23.3 323.8-23.3Q324.3-23.6 325.2-23.35 326.1-23.1 326.7-22.9L326.7-22.9Q327.05-22.45 327.6-21.9L327.6-21.9 327.65-20.3Q327.65-19.05 327.8-17.7L327.8-17.7Q327.75-17.15 327.8-17L327.8-17 328.65-17.9Q328.7-18 329.78-19 330.85-20 331.15-20.25L331.15-20.25Q331.15-20.5 331.75-20.65L331.75-20.65Q333.05-20.95 333.95-20.68 334.85-20.4 334.95-20.4L334.95-20.4 336.8-19.6Q336.8-19.4 337.3-19.25L337.3-19.25 337.75-19Q338-19 338.4-18.65L338.4-18.65Q339-18.55 338.85-17.8L338.85-17.8Q338.85-17.6 339-17.4L339-17.4 339-16.2Q339-15.4 338.53-13.38 338.05-11.35 337.93-11 337.8-10.65 337.63-10.1 337.45-9.55 337.25-9.05L337.25-9.05Q337-8.2 336.25-6.73 335.5-5.25 334.75-4.4L334.75-4.4Q333-1.95 330.85-0.5L330.85-0.5Q328.5 0.4 327.9 0.55L327.9 0.55Q327.75 0.55 327.9 2.35L327.9 2.35 327.9 5.95 328.05 8.15 328.1 10.4Q328.2 12.05 328 12.25L328 12.25 327.4 12.75Q326.75 13 326.25 12.8L326.25 12.8Q325.25 12.5 325.05 12.35L325.05 12.35Q324.85 12.35 324.4 11.95L324.4 11.95 323.85 11.75Q323.15 11.85 323 11.4L323 11.4Q322.5 11 322.5 10.7L322.5 10.7 321.75 9.6Q321.45 8.85 321.45 8.2L321.45 8.2Q321.15 7.1 321.25 6.5L321.25 6.5 321.15 4.6 321.15 1.95Q321.15 0.6 321.05 0.2L321.05 0.2Q320.95-0.1 321.15-5.1L321.15-5.1Q321.3-6.1 321.3-6.35L321.3-6.35 322.05-12.5 322.2-14.2 322.2-14.6Q322.35-15.2 322.35-15.5ZM344.25-26.75L344.25-26.75 344.6-29.7 344.65-31.25Q344.65-31.9 344.9-32.25L344.9-32.25 345.4-32.95Q346.75-34 347.15-34.15 347.55-34.3 348.33-34.13 349.1-33.95 349.25-33.8L349.25-33.8 349.8-33.35Q350.25-33.1 350.25-32.55L350.25-32.55Q350.5-32.25 350.4-32.1L350.4-32.1Q350.1-31.75 349.4-26.2L349.4-26.2 349-19.4 348.75-18.05Q348.75-17.4 348.8-17.3L348.8-17.3 348.8-16.4Q348.7-15.4 348.6-15.15L348.6-15.15Q348.6-14.9 348.5-14.6L348.5-14.6Q348.6-14.5 348.6-13.83 348.6-13.15 348.45-13L348.45-13Q348.35-12.2 348.35-11.48 348.35-10.75 348.48-9.98 348.6-9.2 348.55-8.45L348.55-8.45 348.75-6.55 348.75-5.8Q348.85-4.9 348.85-4.35L348.85-4.35 349.1-1.75 349.3-0.4Q349.45 0.45 349.18 1.25 348.9 2.05 348.35 2.25L348.35 2.25Q346.8 2.9 344.95 1.4L344.95 1.4 344.55 1.4Q344.2 1 344 0.3L344 0.3Q343.6 0.1 343.65-0.4 343.7-0.9 343.45-1.3 343.2-1.7 343.2-2L343.2-2Q343.2-2.65 343.1-3.15L343.1-3.15 343.15-3.55Q343-3.7 343-4L343-4 342.9-4.9 342.9-5.3Q342.9-5.7 342.88-5.85 342.85-6 343-6.35L343-6.35Q342.85-6.55 342.95-7.8L342.95-7.8Q343.25-11.65 343.25-13.1L343.25-13.1 343.3-14.3 343.3-15.75Q343.35-16.95 343.38-18.8 343.4-20.65 343.55-20.8L343.55-20.8 343.5-21.25Q343.5-22.45 343.88-24.53 344.25-26.6 344.25-26.75ZM364.25-14.35L364.25-14.35Q364.2-15.45 363.75-16.03 363.3-16.6 362.1-16.7L362.1-16.7Q361.75-16.45 361.17-15.03 360.6-13.6 360.45-12L360.45-12Q359.95-9.6 359.95-7.2L359.95-7.2Q360-4.75 360.75-3.6L360.75-3.6Q360.85-3.4 360.95-3.45L360.95-3.45Q361.2-3.45 361.75-4.45L361.75-4.45Q364.4-9.25 364.25-14.35ZM365.8-4.8L365.8-4.8 365.05-2.85Q365.05-2.75 363.6-0.7L363.6-0.7Q363.15 0.25 361.92 0.35 360.7 0.45 359.55 0.1L359.55 0.1Q358-0.45 357.2-1.2 356.4-1.95 355.62-3.73 354.85-5.5 354.8-6.65L354.8-6.65Q354.55-8.3 354.55-8.75L354.55-8.75 354.55-9.95Q354.55-11.75 354.7-12.05L354.7-12.05Q354.75-12.25 354.95-13.1L354.95-13.1Q355.2-15.2 356.15-17.1L356.15-17.1Q358-20.75 359.95-20.85L359.95-20.85 360.2-20.85Q360.3-20.8 360.5-20.8L360.5-20.8 361.15-20.8Q362.9-20.65 363.3-20.5L363.3-20.5Q364.05-20.3 364.6-20.3L364.6-20.3 365.9-20.05Q366.5-20.1 367.47-19.8 368.45-19.5 368.52-19.35 368.6-19.2 368.8-18.25 369-17.3 369.07-16.88 369.15-16.45 369.2-16L369.2-16Q369.6-12.35 370.5-9.2L370.5-9.2Q370.55-9.05 370.6-8.75 370.65-8.45 370.95-7.58 371.25-6.7 371.4-6.1 371.55-5.5 371.95-4.5L371.95-4.5Q372.25-3.75 372.85-2.75L372.85-2.75Q373.95-1.2 371.7-0.35L371.7-0.35Q371.4-0.25 370.65-0.25L370.65-0.25Q370.5-0.25 369.7-0.75L369.7-0.75Q369.2-0.75 368.75-1.3L368.75-1.3 368.35-1.4Q368-1.75 367.75-1.75L367.75-1.75Q367.65-1.85 365.95-5.8L365.95-5.8Q365.8-5.25 365.8-4.8ZM379.6-17.65L379.6-17.65 379.65-18.1Q378.6-18.2 378.17-18.28 377.75-18.35 376.8-18.45 375.85-18.55 375.3-18.75L375.3-18.75Q374.25-19.1 374.1-20.58 373.95-22.05 375.05-22.4L375.05-22.4Q376.05-22.65 376.45-22.65 376.85-22.65 377.95-22.75L377.95-22.75Q378.5-23.05 379.45-23.1L379.45-23.1 380.2-23.3Q380.2-23.25 380.6-23.4L380.6-23.4 380.85-24.45Q380.85-25.25 381.3-26.05L381.3-26.05Q381.3-26.4 381.95-28L381.95-28Q381.95-28.2 382.85-30.9L382.85-30.9Q383.05-31.15 384.35-32.05L384.35-32.05Q385.15-32.45 386.6-31.5L386.6-31.5Q387.4-31.15 387.7-30.55L387.7-30.55Q387.4-30.25 387.4-29.15L387.4-29.15Q387.35-28.8 386.7-25.45L386.7-25.45 386.7-24.05Q387.1-24 388.02-23.8 388.95-23.6 390.25-23.35L390.25-23.35Q392.75-22.85 393.4-21.35L393.4-21.35Q393.65-20.25 393.3-19.8 392.95-19.35 391.6-19.15L391.6-19.15Q390.5-19.1 388.72-19.1 386.95-19.1 386.1-18.85L386.1-18.85Q386-17.95 386-17.45L386-17.45 385.95-16.7Q385.95-16.35 385.5-13L385.5-13Q385.2-12.55 385-8.35L385-8.35 385-4.7Q385-3.8 385.15-3L385.15-3Q385.2-1.9 385.4-1.45L385.4-1.45Q385.4-1 385.65 0.45L385.65 0.45Q385.05 1.9 383.67 1.9 382.3 1.9 381.25 0.9L381.25 0.9 380.7 0.1Q380.55-0.3 380.47-0.45 380.4-0.6 380.35-0.8L380.35-0.8Q380-1.8 379.8-2.05L379.8-2.05Q379.5-2.45 379.5-2.65 379.5-2.85 379.5-3.15L379.5-3.15Q379.4-4 379.25-4.6L379.25-4.6Q379-4.85 379-6.3L379-6.3Q379.1-8.95 379-9.35L379-9.35Q379.15-9.5 379.05-11.25L379.05-11.25 379.2-12.35Q379.2-12.55 379.4-13.85L379.4-13.85Q379.3-14.05 379.35-14.93 379.4-15.8 379.5-16.15L379.5-16.15Q379.6-16.75 379.6-17.65ZM394.39-17.35L394.39-17.35 393.89-17.4 393.29-17.4Q391.89-17.4 391.64-17.75L391.64-17.75Q391.09-18.7 391.54-19.65L391.54-19.65Q391.84-20.4 392.54-20.53 393.24-20.65 393.74-20.8L393.74-20.8Q393.99-20.8 394.97-20.95 395.94-21.1 396.09-21.25L396.09-21.25 396.09-21.65Q396.09-21.95 396.54-23.15L396.54-23.15Q396.54-23.4 396.74-23.9L396.74-23.9Q396.89-24.4 397.09-25.3L397.09-25.3 397.79-27.7Q397.79-27.9 398.14-28.45L398.14-28.45Q398.04-28.6 398.22-29 398.39-29.4 398.39-29.65L398.39-29.65 398.69-30.45 399.14-31.1Q399.14-31.5 399.44-32.1L399.44-32.1Q399.74-32.4 399.84-32.65L399.84-32.65Q402.39-34.35 402.74-34.4L402.74-34.4 404.14-34.4Q405.29-34.4 405.74-34.45L405.74-34.45Q407.39-34.35 408.44-33.85L408.44-33.85 408.94-33.7Q410.99-32 410.79-30.3L410.79-30.3Q410.79-29.95 410.27-29.45 409.74-28.95 409.09-28.85L409.09-28.85Q407.74-28.85 406.49-29.4 405.24-29.95 404.57-29.95 403.89-29.95 403.44-29.15L403.44-29.15Q402.94-28 402.34-24.5L402.34-24.5Q401.69-21.4 401.79-21.3L401.79-21.3 402.24-21.3Q402.74-21.2 403.29-21.2L403.29-21.2 405.04-20.95Q405.94-20.95 407.37-20.43 408.79-19.9 408.57-18.88 408.34-17.85 407.19-17.75L407.19-17.75Q403.94-17.9 401.94-17.25L401.94-17.25Q401.54-17.1 401.54-14.8L401.54-14.8 401.34-10.3Q401.34-9.55 401.24-9.5L401.24-9.5Q400.99-9.3 401.29-8.8L401.29-8.8Q401.24-8.7 401.22-8.03 401.19-7.35 401.24-7.1L401.24-7.1Q401.14-6.9 401.19-5.28 401.24-3.65 401.29-3.2L401.29-3.2Q401.19-3.2 401.29-2.5L401.29-2.5 401.29-1.75Q401.29 0.35 401.24 0.75L401.24 0.75Q401.04 2.6 398.94 2.95L398.94 2.95Q397.89 3.1 397.19 2.73 396.49 2.35 396.24 1.9L396.24 1.9Q395.89 1.25 395.44-0.25L395.44-0.25 395.44-0.8 395.34-1.65Q395.34-2 395.44-2.5L395.44-2.5Q395.34-3 395.34-3.15L395.34-3.15 395.34-4.45Q395.39-5.25 395.29-6.3L395.29-6.3 395.29-7.45Q395.29-7.8 395.39-9.4L395.39-9.4Q395.34-10.1 395.34-10.8L395.34-10.8Q395.49-13.85 395.39-14.8L395.39-14.8Q395.49-15.1 395.49-15.5L395.49-15.5 395.49-16.2Q395.59-16.5 395.59-16.75 395.59-17 395.49-17.35L395.49-17.35Q394.79-17.45 394.39-17.35ZM419.09-14.75L419.09-14.75Q418.74-16.75 417.14-16.6L417.14-16.6Q416.24-16.55 415.59-15.4L415.59-15.4Q414.69-13.65 414.82-10.88 414.94-8.1 415.22-6.88 415.49-5.65 416.19-4.75L416.19-4.75Q416.59-4.05 417.39-4.1L417.39-4.1Q418.79-4.1 419.44-6.45L419.44-6.45 419.84-7.65Q420.09-7.9 419.94-8.15L419.94-8.15Q420.44-9.4 420.49-11.1L420.49-11.1Q419.99-11.45 419.89-11.75L419.89-11.75Q419.59-12.6 419.59-12.9L419.59-12.9Q419.24-13.15 419.19-13.85 419.14-14.55 419.09-14.75ZM409.94-10.05L409.94-10.05 410.14-12.6Q410.49-16.05 412.24-18.5L412.24-18.5Q413.94-20.55 417.04-20.6L417.04-20.6 417.34-20.6Q420.24-20.6 421.54-19.35L421.54-19.35Q422.94-18.25 423.62-16.95 424.29-15.65 424.49-15.05 424.69-14.45 424.74-13.3L424.74-13.3Q424.84-11.15 423.89-10.85L423.89-10.85Q424.59-6.1 423.04-3.3L423.04-3.3Q422.54-2.15 421.59-0.8L421.59-0.8Q420.89 0.1 419.09 0.2L419.09 0.2Q417.29 0.2 415.97 0 414.64-0.2 413.04-1.28 411.44-2.35 410.79-4.8L410.79-4.8Q410.09-7.15 409.94-10.05ZM429.89-12.1L429.44-14.75Q429.44-15.2 429.34-15.8L429.34-15.8 429.34-16.15Q429.39-16.5 429.29-16.9L429.29-16.9Q429.29-17.4 429.39-17.8L429.39-17.8Q429.39-18.8 429.64-19.1L429.64-19.1Q429.64-19.35 430.34-20.25L430.34-20.25Q430.54-20.45 431.09-20.9L431.09-20.9Q431.89-21.15 432.19-21.2L432.19-21.2Q432.39-21.4 433.54-21.05L433.54-21.05Q434.04-21 435.09-20.7L435.09-20.7Q435.44-20.6 435.99-19.9L435.99-19.9Q435.89-19.7 435.66-18.43 435.44-17.15 435.49-16.35L435.49-16.35Q435.79-16.6 436.54-17.4 437.29-18.2 437.34-18.25L437.34-18.25Q438.64-18.85 439.89-19.1L439.89-19.1Q441.69-19.25 442.24-18.85L442.24-18.85Q442.69-18.7 442.94-18.4L442.94-18.4Q443.39-18 443.69-17.03 443.99-16.05 443.64-15.8L443.64-15.8Q443.34-15.55 441.64-15.4L441.64-15.4Q441.54-15.4 440.94-15L440.94-15 438.34-12.95Q437.54-12.55 437.24-12.25L437.24-12.25 436.29-10.5Q436.24-10.4 436.19-9.2 436.14-8 436.19-7.48 436.24-6.95 436.19-4.1L436.19-4.1 436.19-1.95Q436.19-0.2 436.14 0.08 436.09 0.35 435.74 1.05L435.74 1.05Q435.59 1.3 434.79 1.3L434.79 1.3Q432.84 2.75 432.29 1.15L432.29 1.15 431.64 0.75Q431.24 0.55 431.14 0.25L431.14 0.25Q430.74-0.3 430.74-0.4L430.74-0.4 430.54-1.1 430.24-1.7Q430.09-1.75 429.99-3.63 429.89-5.5 429.89-5.93 429.89-6.35 429.79-6.85L429.79-6.85Q430.14-7.2 430.11-8.05 430.09-8.9 429.99-9.38 429.89-9.85 429.99-9.98 430.09-10.1 429.94-11.35L429.94-11.35Q429.79-11.55 429.89-12.1L429.89-12.1ZM448.59-20.65L448.59-20.65 448.69-20.65Q449.34-20.85 450.79-20.5L450.79-20.5Q451.29-20.35 451.39-17.65L451.39-17.65Q451.59-15.6 451.59-14.83 451.59-14.05 451.64-13.9L451.64-13.9 451.64-10.55 451.89-10.5Q451.89-10.55 451.99-11.1L451.99-11.1Q452.24-12.5 452.54-13.25L452.54-13.25Q452.74-13.45 452.76-13.75 452.79-14.05 453.04-14.4L453.04-14.4Q453.34-15.8 454.54-18.05L454.54-18.05Q454.94-19 455.31-19.48 455.69-19.95 456.46-19.8 457.24-19.65 457.74-19.25L457.74-19.25Q458.14-19.2 458.69-19.1L458.69-19.1 460.14-18.8Q460.34-18.75 460.69-18.48 461.04-18.2 460.99-17.8 460.94-17.4 460.89-15.45L460.89-15.45 460.89-14.65 460.69-12.7Q460.69-11.9 460.79-11.75L460.79-11.75 460.99-11.6 461.39-13.9Q461.39-14.25 461.69-14.55L461.69-14.55 462.29-16Q462.29-16.15 462.59-16.65L462.59-16.65Q462.69-17 463.06-17.65 463.44-18.3 464.04-18.9L464.04-18.9Q464.04-19.3 464.94-19.45L464.94-19.45Q465.64-20.2 467.24-19.5L467.24-19.5Q467.54-19.5 467.79-19.4L467.79-19.4Q467.79-19.3 468.16-19.25 468.54-19.2 469.09-18.6L469.09-18.6 469.09-18.05Q469.09-17.55 469.14-17.3L469.14-17.3Q469.09-16.95 469.19-16.4L469.19-16.4 469.19-15.8Q469.24-15.4 469.44-13.3L469.44-13.3 469.44-12.75Q469.59-12.45 469.56-12.13 469.54-11.8 469.54-11.45L469.54-11.45Q469.69-11.3 469.79-10.63 469.89-9.95 469.69-9.3L469.69-9.3 469.79-8.85 469.79-7.45Q470.04-7.25 470.04-6.85L470.04-6.85 470.19-6Q470.19-5.1 470.44-4.2L470.44-4.2 470.44-3.65 470.69-2.35 470.69-2.05 470.64-1.55Q470.64-1 470.04-0.75L470.04-0.75Q469.94-0.7 469.76-0.6 469.59-0.5 469.19-0.5L469.19-0.5 468.14-0.85 467.64-1.2Q467.24-1.1 466.59-1.55L466.59-1.55Q466.59-2 466.24-2.35L466.24-2.35Q465.64-2.55 465.79-3.15L465.79-3.15Q465.84-3.2 465.54-3.7L465.54-3.7Q465.64-3.8 465.39-4.8L465.39-4.8Q465.39-5.25 465.31-5.68 465.24-6.1 465.21-6.55 465.19-7 465.04-7.35L465.04-7.35Q465.09-7.35 465.09-7.7 465.09-8.05 464.99-8.35L464.99-8.35 464.99-9.5 464.74-11.5 463.99-9.2Q463.24-7.25 463.24-7.1L463.24-7.1 461.64-2.1Q461.49-1.8 461.06-1.43 460.64-1.05 460.34-1.05L460.34-1.05Q460.24-1.2 459.81-1.2 459.39-1.2 458.79-0.95L458.79-0.95Q457.09-0.75 456.84-2L456.84-2 456.74-3.15 456.79-4.3Q456.69-4.45 456.69-5L456.69-5 456.64-5.7 456.64-7.85 456.54-10.4 456.54-12.85Q455.09-8.9 454.74-7.7L454.74-7.7 452.89-1.75Q452.34-0.3 450.89-0.2L450.89-0.2 450.34-0.1Q449.24 0.15 448.89-0.45L448.89-0.45 448.39-1.3Q448.19-2.4 447.99-2.55L447.99-2.55Q447.89-3.25 447.49-4L447.49-4 447.24-5.2Q447.24-5.35 447.14-5.65L447.14-5.65 447.14-6.55Q446.99-6.95 446.89-8.18 446.79-9.4 446.84-10.15L446.84-10.15Q446.64-10.75 446.74-11.65L446.74-11.65 446.74-12.55Q446.49-13.7 446.49-16.05L446.49-16.05 446.49-16.75Q446.74-18.25 446.74-18.78 446.74-19.3 446.99-19.58 447.24-19.85 448.59-20.65Z" opacity="1" transform="matrix(1,0,0,1,0,0)" fill="#000000" class="slogan-text-1" data-fill-palette-color="secondary" id="text-1"></path></svg></g></svg></g></svg></g></svg></g><g transform="matrix(1,0,0,1,104.89114750841193,0)"><svg viewBox="0 0 187.71530498317605 203.4697577571899" height="203.4697577571899" width="187.71530498317605"><g><svg xmlns="http://www.w3.org/2000/svg" xmlns:xlink="http://www.w3.org/1999/xlink" version="1.1" x="8" y="0" viewBox="10 2.603 80 94.79400000000001" enable-background="new 0 0 100 100" xml:space="preserve" height="203.4697577571899" width="171.71530498317605" class="icon-icon-0" data-fill-palette-color="accent" id="icon-0"><g fill="#ffffff" data-fill-palette-color="accent"><polygon points="10,75.815 45,97.397 45,62.397 10,40.815  " fill="#000000" data-fill-palette-color="accent"></polygon><polygon points="50,62.896 50,97.397 90,80.259 90,45.698  " fill="#000000" data-fill-palette-color="accent"></polygon><polygon points="59.922,2.603 40,11.25 40,38.247 59.922,29.604  " fill="#000000" data-fill-palette-color="accent"></polygon><polygon points="64.922,24.375 64.922,27.935 70.659,31.47 37.92,45.396 30.225,40.659 35,38.628 35,38.247 35,24.976    13.232,34.302 47.515,55.444 87.515,38.306  " fill="#000000" data-fill-palette-color="accent"></polygon></g></svg></g></svg></g><g></g></svg></g><defs></defs></svg><rect width="243.70266208022764" height="247.2" fill="none" stroke="none" visibility="hidden"></rect></g></svg></g></svg>